<svg width="180" height="180" viewBox="0 0 180 180" fill="none" xmlns="http://www.w3.org/2000/svg">
  <!-- Paper background with slight cream tint -->
  <rect width="180" height="180" fill="#f8f6f0" rx="20"/>
  
  <!-- Newspaper border -->
  <rect x="10" y="10" width="160" height="160" fill="#fefefe" stroke="#1a1a1a" stroke-width="2" rx="4"/>
  
  <!-- Header section -->
  <rect x="20" y="20" width="140" height="25" fill="#fefefe"/>
  <rect x="20" y="45" width="140" height="2" fill="#1a1a1a"/>
  
  <!-- Newspaper title -->
  <rect x="30" y="25" width="120" height="4" fill="#8b0000"/>
  <rect x="40" y="32" width="100" height="3" fill="#1a1a1a"/>
  <rect x="50" y="38" width="80" height="2" fill="#666666"/>
  
  <!-- Column dividers -->
  <rect x="89" y="55" width="2" height="100" fill="#d4d4d4"/>
  
  <!-- Left column headlines and text -->
  <rect x="25" y="60" width="55" height="3" fill="#8b0000"/>
  <rect x="25" y="68" width="50" height="2" fill="#1a1a1a"/>
  <rect x="25" y="73" width="45" height="2" fill="#1a1a1a"/>
  <rect x="25" y="78" width="52" height="2" fill="#1a1a1a"/>
  <rect x="25" y="83" width="40" height="2" fill="#1a1a1a"/>
  <rect x="25" y="88" width="55" height="2" fill="#1a1a1a"/>
  
  <!-- Left column second article -->
  <rect x="25" y="100" width="50" height="3" fill="#8b0000"/>
  <rect x="25" y="108" width="48" height="2" fill="#1a1a1a"/>
  <rect x="25" y="113" width="42" height="2" fill="#1a1a1a"/>
  <rect x="25" y="118" width="50" height="2" fill="#1a1a1a"/>
  <rect x="25" y="123" width="45" height="2" fill="#1a1a1a"/>
  <rect x="25" y="128" width="38" height="2" fill="#1a1a1a"/>
  
  <!-- Right column headlines and text -->
  <rect x="100" y="60" width="55" height="3" fill="#8b0000"/>
  <rect x="100" y="68" width="50" height="2" fill="#1a1a1a"/>
  <rect x="100" y="73" width="45" height="2" fill="#1a1a1a"/>
  <rect x="100" y="78" width="52" height="2" fill="#1a1a1a"/>
  <rect x="100" y="83" width="40" height="2" fill="#1a1a1a"/>
  <rect x="100" y="88" width="55" height="2" fill="#1a1a1a"/>
  
  <!-- Right column second article -->
  <rect x="100" y="100" width="50" height="3" fill="#8b0000"/>
  <rect x="100" y="108" width="48" height="2" fill="#1a1a1a"/>
  <rect x="100" y="113" width="42" height="2" fill="#1a1a1a"/>
  <rect x="100" y="118" width="50" height="2" fill="#1a1a1a"/>
  <rect x="100" y="123" width="45" height="2" fill="#1a1a1a"/>
  <rect x="100" y="128" width="38" height="2" fill="#1a1a1a"/>
  
  <!-- Decorative elements -->
  <circle cx="45" cy="28" r="2" fill="#8b0000"/>
  <circle cx="135" cy="28" r="2" fill="#8b0000"/>
  
  <!-- Bottom border decoration -->
  <rect x="30" y="145" width="120" height="1" fill="#1a1a1a"/>
  <rect x="50" y="150" width="80" height="1" fill="#666666"/>
</svg>
