<svg width="16" height="16" viewBox="0 0 16 16" fill="none" xmlns="http://www.w3.org/2000/svg">
  <!-- Paper background -->
  <rect width="16" height="16" fill="#fefefe"/>
  
  <!-- Newspaper border -->
  <rect width="16" height="16" fill="none" stroke="#1a1a1a" stroke-width="0.5"/>
  
  <!-- Header -->
  <rect x="1" y="1" width="14" height="3" fill="#fefefe"/>
  <rect x="1" y="4" width="14" height="0.5" fill="#1a1a1a"/>
  
  <!-- Title -->
  <rect x="2" y="2" width="12" height="0.5" fill="#8b0000"/>
  
  <!-- Column divider -->
  <rect x="7.5" y="5" width="0.5" height="10" fill="#d4d4d4"/>
  
  <!-- Left column -->
  <rect x="1.5" y="6" width="5" height="0.5" fill="#1a1a1a"/>
  <rect x="1.5" y="7.5" width="4" height="0.5" fill="#1a1a1a"/>
  <rect x="1.5" y="9" width="5.5" height="0.5" fill="#1a1a1a"/>
  <rect x="1.5" y="10.5" width="4.5" height="0.5" fill="#1a1a1a"/>
  <rect x="1.5" y="12" width="5" height="0.5" fill="#1a1a1a"/>
  <rect x="1.5" y="13.5" width="3.5" height="0.5" fill="#1a1a1a"/>
  
  <!-- Right column -->
  <rect x="8.5" y="6" width="6" height="0.5" fill="#1a1a1a"/>
  <rect x="8.5" y="7.5" width="5" height="0.5" fill="#1a1a1a"/>
  <rect x="8.5" y="9" width="5.5" height="0.5" fill="#1a1a1a"/>
  <rect x="8.5" y="10.5" width="4" height="0.5" fill="#1a1a1a"/>
  <rect x="8.5" y="12" width="6" height="0.5" fill="#1a1a1a"/>
  <rect x="8.5" y="13.5" width="4.5" height="0.5" fill="#1a1a1a"/>
</svg>
