<svg width="32" height="32" viewBox="0 0 32 32" fill="none" xmlns="http://www.w3.org/2000/svg">
  <!-- Paper background -->
  <rect width="32" height="32" fill="#fefefe"/>
  
  <!-- Newspaper border -->
  <rect width="32" height="32" fill="none" stroke="#1a1a1a" stroke-width="1"/>
  
  <!-- Header section -->
  <rect x="2" y="2" width="28" height="6" fill="#fefefe"/>
  <rect x="2" y="8" width="28" height="1" fill="#1a1a1a"/>
  
  <!-- Newspaper title (stylized) -->
  <rect x="4" y="3" width="24" height="1" fill="#8b0000"/>
  <rect x="6" y="5" width="20" height="1" fill="#1a1a1a"/>
  
  <!-- Column divider -->
  <rect x="15.5" y="10" width="1" height="20" fill="#d4d4d4"/>
  
  <!-- Left column text lines -->
  <rect x="3" y="11" width="11" height="1" fill="#1a1a1a"/>
  <rect x="3" y="13" width="9" height="1" fill="#1a1a1a"/>
  <rect x="3" y="15" width="12" height="1" fill="#1a1a1a"/>
  <rect x="3" y="17" width="8" height="1" fill="#1a1a1a"/>
  <rect x="3" y="19" width="11" height="1" fill="#1a1a1a"/>
  <rect x="3" y="21" width="10" height="1" fill="#1a1a1a"/>
  <rect x="3" y="23" width="9" height="1" fill="#1a1a1a"/>
  <rect x="3" y="25" width="12" height="1" fill="#1a1a1a"/>
  <rect x="3" y="27" width="7" height="1" fill="#1a1a1a"/>
  
  <!-- Right column text lines -->
  <rect x="17" y="11" width="12" height="1" fill="#1a1a1a"/>
  <rect x="17" y="13" width="10" height="1" fill="#1a1a1a"/>
  <rect x="17" y="15" width="11" height="1" fill="#1a1a1a"/>
  <rect x="17" y="17" width="9" height="1" fill="#1a1a1a"/>
  <rect x="17" y="19" width="12" height="1" fill="#1a1a1a"/>
  <rect x="17" y="21" width="8" height="1" fill="#1a1a1a"/>
  <rect x="17" y="23" width="11" height="1" fill="#1a1a1a"/>
  <rect x="17" y="25" width="10" height="1" fill="#1a1a1a"/>
  <rect x="17" y="27" width="9" height="1" fill="#1a1a1a"/>
  
  <!-- Small decorative elements -->
  <circle cx="8" cy="4" r="0.5" fill="#8b0000"/>
  <circle cx="24" cy="4" r="0.5" fill="#8b0000"/>
</svg>
